<svg xmlns="http://www.w3.org/2000/svg" width="787" height="392" viewBox="0 0 787 392" fill="none"><path d="M174.073 150.536C174.023 147.632 172.722 146.437 169.729 146.496C161.844 146.656 153.977 146.496 146.059 146.563C142.668 146.563 138.672 145.806 136.11 147.354C134.377 148.407 134.659 152.885 133.996 155.822C133.93 156.125 133.582 156.369 133.109 156.959C129.602 155.006 126.054 152.977 122.464 151.067C91.44 134.417 55.2347 137.405 29.774 159.661C8.79037 177.993 -0.163554 202.033 0.00225891 229.962C0.292432 279.708 42.5251 320.372 91.44 317.165C100.891 316.55 110.235 314.042 120.084 312.325L105.161 274.607C101.779 275.263 98.8187 275.861 95.8507 276.417C71.1362 281.013 45.8414 264.414 40.9499 240.382C35.478 213.632 50.7494 188.237 76.1106 181.924C105.501 174.61 134.004 197.622 134.51 229.457C134.858 251.476 134.817 273.513 134.51 295.541C134.178 319.69 119.288 338.553 97.0694 343.149C87.4025 345.152 77.8682 343.898 68.5081 340.523C66.1452 339.681 62.1242 339.361 60.6982 340.742C52.1589 348.999 44.1169 357.82 35.6936 366.743C37.1942 367.887 38.9352 369.436 40.8753 370.657C70.5973 389.267 101.049 389.806 131.011 372.247C159.357 355.632 173.543 329.319 174.007 296.399C174.67 249.06 174.173 201.705 174.164 154.358C174.173 153.087 174.098 151.807 174.073 150.536Z" fill="#BA1916"></path><path d="M736.453 47.6204C736.185 71.4564 736.336 95.301 736.336 119.137V125.92H779.737V0H450.407V124.259H489.986V40.5014H496.795C574.431 40.5014 652.064 40.4527 729.695 40.3551C735.474 40.3465 736.511 42.2317 736.453 47.6204Z" fill="#BA1916"></path><path d="M752.396 145.315C745.244 145.002 741.391 148.076 738.564 154.291C724.917 184.312 711.069 214.247 697.245 244.183C694.216 250.753 690.994 257.239 687.41 264.687C677.734 243.77 668.58 223.933 659.393 204.114C651.512 187.09 643.592 170.08 635.633 153.084C633.951 149.461 632.201 145.644 627.22 145.644H588.434C589.712 148.726 590.781 151.555 592.051 154.359C597.823 166.941 603.67 179.49 609.459 192.064C626.606 229.293 643.761 266.522 660.924 303.751C664.424 311.292 663.785 318.149 659.384 324.964C654.025 333.273 646.529 338.188 636.769 339.548C633.53 339.995 630.173 339.885 627.043 340.705C624.99 341.245 622.045 342.638 621.566 344.268C618.201 355.744 615.298 367.389 612.143 379.431C628.473 380.858 643.786 380.698 658.568 374.956C679.602 366.79 692.576 350.542 701.738 330.774C726.176 278.057 750.519 225.287 774.767 172.464C778.789 163.741 782.692 154.967 787 145.441C774.826 145.45 763.594 145.804 752.396 145.315Z" fill="#BA1916"></path><path d="M346.209 140.456C335.157 140.336 324.191 142.526 313.943 146.9C303.696 151.274 294.368 157.745 286.498 165.941C278.627 174.137 272.369 183.896 268.084 194.657C263.799 205.417 261.571 216.966 261.529 228.639C261.303 279.713 298.076 319.457 345.732 319.645C391.808 319.816 430.792 279.841 431.035 232.162C431.31 180.678 394.31 140.729 346.209 140.456ZM345.902 278.798C339.853 278.775 333.868 277.49 328.291 275.018C322.714 272.545 317.654 268.934 313.401 264.391C309.149 259.849 305.788 254.464 303.511 248.546C301.234 242.628 300.086 236.293 300.133 229.905C300.173 203.192 321.07 180.926 346.12 180.909C371.316 180.909 392.496 203.868 392.334 231.025C392.188 257.19 371.122 278.858 345.902 278.798Z" fill="#BA1916"></path><path d="M581.034 169.858C579.803 163.935 576.261 162.104 570.587 162.137C564.494 162.137 558.401 162.137 552.182 162.137C558.008 139.689 570.15 123.936 595.701 121.701V82.332C591.562 82.5925 587.725 82.5253 584.005 83.1218C539.603 90.1706 511.126 122.315 511.028 165.632C510.921 212.311 510.921 258.992 511.028 305.676C511.028 308.692 511.465 311.717 511.706 314.8H554.145V202.07H589.117C588.76 200.07 588.618 198.667 588.225 197.314C585.807 188.14 582.952 179.1 581.034 169.858Z" fill="#BA1916"></path><path d="M239.468 85.3936C238.997 84.1969 237.652 82.4945 236.668 82.4777C224.895 82.2754 213.123 82.3428 200.988 82.3428V314.8H239.611V89.7254C239.611 88.2674 239.964 86.6662 239.468 85.3936Z" fill="#BA1916"></path><path d="M486.529 148.371C485.929 147.171 484.777 145.454 483.83 145.437C472.778 145.23 461.727 145.307 450.407 145.307V314.801H486.632V151.702C486.6 150.563 486.932 149.242 486.529 148.371Z" fill="#BA1916"></path><path d="M184.913 345.818V380H179.755V345.818H184.913ZM196.543 364.778V380H191.553V354.364H196.343V358.536H196.66C197.25 357.179 198.173 356.088 199.431 355.265C200.699 354.442 202.296 354.03 204.221 354.03C205.968 354.03 207.498 354.397 208.811 355.131C210.124 355.855 211.142 356.934 211.865 358.369C212.588 359.805 212.95 361.579 212.95 363.694V380H207.959V364.294C207.959 362.436 207.475 360.984 206.507 359.938C205.539 358.881 204.21 358.353 202.518 358.353C201.361 358.353 200.332 358.603 199.431 359.104C198.54 359.604 197.834 360.339 197.311 361.307C196.799 362.264 196.543 363.421 196.543 364.778ZM224.163 364.778V380H219.173V354.364H223.963V358.536H224.28C224.87 357.179 225.793 356.088 227.05 355.265C228.319 354.442 229.916 354.03 231.841 354.03C233.587 354.03 235.117 354.397 236.43 355.131C237.743 355.855 238.761 356.934 239.485 358.369C240.208 359.805 240.57 361.579 240.57 363.694V380H235.579V364.294C235.579 362.436 235.095 360.984 234.127 359.938C233.159 358.881 231.829 358.353 230.138 358.353C228.981 358.353 227.952 358.603 227.05 359.104C226.16 359.604 225.454 360.339 224.931 361.307C224.419 362.264 224.163 363.421 224.163 364.778ZM257.591 380.517C255.188 380.517 253.09 379.967 251.299 378.865C249.507 377.763 248.117 376.222 247.126 374.242C246.136 372.261 245.641 369.947 245.641 367.299C245.641 364.639 246.136 362.314 247.126 360.322C248.117 358.33 249.507 356.784 251.299 355.682C253.09 354.581 255.188 354.03 257.591 354.03C259.994 354.03 262.092 354.581 263.883 355.682C265.675 356.784 267.066 358.33 268.056 360.322C269.046 362.314 269.541 364.639 269.541 367.299C269.541 369.947 269.046 372.261 268.056 374.242C267.066 376.222 265.675 377.763 263.883 378.865C262.092 379.967 259.994 380.517 257.591 380.517ZM257.608 376.328C259.166 376.328 260.456 375.916 261.48 375.093C262.504 374.27 263.26 373.174 263.75 371.805C264.251 370.436 264.501 368.929 264.501 367.282C264.501 365.646 264.251 364.144 263.75 362.776C263.26 361.396 262.504 360.289 261.48 359.454C260.456 358.62 259.166 358.202 257.608 358.202C256.039 358.202 254.737 358.62 253.702 359.454C252.679 360.289 251.916 361.396 251.416 362.776C250.926 364.144 250.681 365.646 250.681 367.282C250.681 368.929 250.926 370.436 251.416 371.805C251.916 373.174 252.679 374.27 253.702 375.093C254.737 375.916 256.039 376.328 257.608 376.328ZM295.701 354.364L286.404 380H281.063L271.75 354.364H277.108L283.6 374.092H283.867L290.343 354.364H295.701ZM309.469 354.041C312.155 354.041 314.195 354.772 315.589 356.234C316.983 357.662 317.68 359.719 317.68 362.405V374.798C317.68 375.58 317.816 376.107 318.088 376.379C318.36 376.617 318.7 376.736 319.108 376.736C319.414 376.736 319.737 376.702 320.077 376.634C320.417 376.566 320.74 376.464 321.046 376.328L321.964 379.184C321.386 379.524 320.672 379.813 319.822 380.051C318.972 380.323 318.105 380.459 317.221 380.459C316.269 380.459 315.436 380.221 314.722 379.745C314.008 379.235 313.549 378.317 313.345 376.991C312.359 378.079 311.203 378.946 309.877 379.592C308.585 380.238 307.191 380.561 305.695 380.561C303.689 380.561 302.006 379.983 300.646 378.827C299.32 377.637 298.657 376.005 298.657 373.931C298.657 371.993 299.116 370.446 300.034 369.29C300.986 368.134 302.193 367.267 303.655 366.689C305.151 366.077 306.732 365.669 308.398 365.465C310.064 365.261 311.628 365.159 313.09 365.159V362.354C313.09 361.402 312.971 360.569 312.733 359.855C312.495 359.141 312.07 358.58 311.458 358.172C310.846 357.73 310.013 357.509 308.959 357.509C307.701 357.509 306.477 357.781 305.287 358.325C304.097 358.869 302.941 359.6 301.819 360.518L299.626 357.305C301.054 356.217 302.601 355.401 304.267 354.857C305.967 354.313 307.701 354.041 309.469 354.041ZM313.09 368.627C312.206 368.627 311.203 368.678 310.081 368.78C308.993 368.848 307.939 369.035 306.919 369.341C305.899 369.647 305.049 370.157 304.369 370.871C303.723 371.551 303.4 372.486 303.4 373.676C303.4 374.73 303.757 375.512 304.471 376.022C305.219 376.532 306.137 376.787 307.225 376.787C308.381 376.787 309.401 376.464 310.285 375.818C311.169 375.138 311.849 374.305 312.325 373.319C312.835 372.299 313.09 371.245 313.09 370.157V368.627ZM336.579 354.364V358.369H322.576V354.364H336.579ZM326.331 348.222H331.321V372.473C331.321 373.441 331.466 374.17 331.755 374.659C332.045 375.138 332.417 375.466 332.874 375.644C333.341 375.811 333.847 375.894 334.392 375.894C334.793 375.894 335.144 375.866 335.444 375.811C335.744 375.755 335.978 375.711 336.145 375.677L337.046 379.8C336.757 379.911 336.345 380.022 335.811 380.134C335.277 380.256 334.609 380.323 333.808 380.334C332.495 380.356 331.271 380.122 330.136 379.633C329.002 379.143 328.084 378.387 327.383 377.363C326.682 376.339 326.331 375.054 326.331 373.507V348.222ZM341.629 380V354.364H346.62V380H341.629ZM344.149 350.408C343.282 350.408 342.536 350.119 341.913 349.54C341.301 348.95 340.995 348.249 340.995 347.437C340.995 346.614 341.301 345.913 341.913 345.334C342.536 344.744 343.282 344.45 344.149 344.45C345.017 344.45 345.757 344.744 346.369 345.334C346.992 345.913 347.304 346.614 347.304 347.437C347.304 348.249 346.992 348.95 346.369 349.54C345.757 350.119 345.017 350.408 344.149 350.408ZM363.662 380.517C361.259 380.517 359.161 379.967 357.37 378.865C355.578 377.763 354.187 376.222 353.197 374.242C352.207 372.261 351.712 369.947 351.712 367.299C351.712 364.639 352.207 362.314 353.197 360.322C354.187 358.33 355.578 356.784 357.37 355.682C359.161 354.581 361.259 354.03 363.662 354.03C366.065 354.03 368.163 354.581 369.954 355.682C371.746 356.784 373.137 358.33 374.127 360.322C375.117 362.314 375.612 364.639 375.612 367.299C375.612 369.947 375.117 372.261 374.127 374.242C373.137 376.222 371.746 377.763 369.954 378.865C368.163 379.967 366.065 380.517 363.662 380.517ZM363.679 376.328C365.236 376.328 366.527 375.916 367.551 375.093C368.575 374.27 369.331 373.174 369.821 371.805C370.321 370.436 370.572 368.929 370.572 367.282C370.572 365.646 370.321 364.144 369.821 362.776C369.331 361.396 368.575 360.289 367.551 359.454C366.527 358.62 365.236 358.202 363.679 358.202C362.11 358.202 360.808 358.62 359.773 359.454C358.749 360.289 357.987 361.396 357.487 362.776C356.997 364.144 356.752 365.646 356.752 367.282C356.752 368.929 356.997 370.436 357.487 371.805C357.987 373.174 358.749 374.27 359.773 375.093C360.808 375.916 362.11 376.328 363.679 376.328ZM385.703 364.778V380H380.713V354.364H385.503V358.536H385.82C386.41 357.179 387.333 356.088 388.591 355.265C389.859 354.442 391.456 354.03 393.381 354.03C395.128 354.03 396.658 354.397 397.97 355.131C399.283 355.855 400.302 356.934 401.025 358.369C401.748 359.805 402.11 361.579 402.11 363.694V380H397.119V364.294C397.119 362.436 396.635 360.984 395.667 359.938C394.699 358.881 393.37 358.353 391.678 358.353C390.521 358.353 389.492 358.603 388.591 359.104C387.7 359.604 386.994 360.339 386.471 361.307C385.959 362.264 385.703 363.421 385.703 364.778ZM420.702 380V345.818H441.898V350.258H425.859V360.673H440.379V365.096H425.859V380H420.702ZM456.287 380.517C453.883 380.517 451.786 379.967 449.995 378.865C448.203 377.763 446.812 376.222 445.822 374.242C444.832 372.261 444.337 369.947 444.337 367.299C444.337 364.639 444.832 362.314 445.822 360.322C446.812 358.33 448.203 356.784 449.995 355.682C451.786 354.581 453.883 354.03 456.287 354.03C458.69 354.03 460.788 354.581 462.579 355.682C464.371 356.784 465.761 358.33 466.752 360.322C467.742 362.314 468.237 364.639 468.237 367.299C468.237 369.947 467.742 372.261 466.752 374.242C465.761 376.222 464.371 377.763 462.579 378.865C460.788 379.967 458.69 380.517 456.287 380.517ZM456.304 376.328C457.861 376.328 459.152 375.916 460.176 375.093C461.199 374.27 461.956 373.174 462.446 371.805C462.946 370.436 463.197 368.929 463.197 367.282C463.197 365.646 462.946 364.144 462.446 362.776C461.956 361.396 461.199 360.289 460.176 359.454C459.152 358.62 457.861 358.202 456.304 358.202C454.735 358.202 453.433 358.62 452.398 359.454C451.374 360.289 450.612 361.396 450.111 362.776C449.622 364.144 449.377 365.646 449.377 367.282C449.377 368.929 449.622 370.436 450.111 371.805C450.612 373.174 451.374 374.27 452.398 375.093C453.433 375.916 454.735 376.328 456.304 376.328ZM473.338 380V354.364H478.161V358.436H478.428C478.895 357.056 479.719 355.971 480.898 355.181C482.089 354.38 483.435 353.98 484.937 353.98C485.249 353.98 485.616 353.991 486.039 354.013C486.473 354.035 486.812 354.063 487.057 354.097V358.87C486.857 358.814 486.501 358.753 485.989 358.686C485.477 358.609 484.965 358.57 484.453 358.57C483.274 358.57 482.222 358.82 481.299 359.321C480.386 359.81 479.663 360.495 479.129 361.374C478.595 362.241 478.328 363.232 478.328 364.344V380H473.338ZM500.638 345.818H506.496L515.425 361.357H515.792L524.722 345.818H530.58L518.179 366.581V380H513.039V366.581L500.638 345.818ZM541.155 380.517C538.752 380.517 536.654 379.967 534.863 378.865C533.071 377.763 531.68 376.222 530.69 374.242C529.7 372.261 529.205 369.947 529.205 367.299C529.205 364.639 529.7 362.314 530.69 360.322C531.68 358.33 533.071 356.784 534.863 355.682C536.654 354.581 538.752 354.03 541.155 354.03C543.558 354.03 545.656 354.581 547.447 355.682C549.239 356.784 550.629 358.33 551.62 360.322C552.61 362.314 553.105 364.639 553.105 367.299C553.105 369.947 552.61 372.261 551.62 374.242C550.629 376.222 549.239 377.763 547.447 378.865C545.656 379.967 543.558 380.517 541.155 380.517ZM541.172 376.328C542.729 376.328 544.02 375.916 545.044 375.093C546.067 374.27 546.824 373.174 547.314 371.805C547.814 370.436 548.065 368.929 548.065 367.282C548.065 365.646 547.814 364.144 547.314 362.776C546.824 361.396 546.067 360.289 545.044 359.454C544.02 358.62 542.729 358.202 541.172 358.202C539.603 358.202 538.301 358.62 537.266 359.454C536.242 360.289 535.48 361.396 534.98 362.776C534.49 364.144 534.245 365.646 534.245 367.282C534.245 368.929 534.49 370.436 534.98 371.805C535.48 373.174 536.242 374.27 537.266 375.093C538.301 375.916 539.603 376.328 541.172 376.328ZM574.445 369.368V354.364H579.452V380H574.545V375.56H574.278C573.689 376.929 572.743 378.069 571.441 378.982C570.15 379.883 568.543 380.334 566.618 380.334C564.971 380.334 563.513 379.972 562.245 379.249C560.987 378.515 559.997 377.43 559.274 375.994C558.562 374.559 558.206 372.784 558.206 370.67V354.364H563.196V370.069C563.196 371.816 563.68 373.207 564.648 374.242C565.616 375.277 566.873 375.794 568.42 375.794C569.355 375.794 570.284 375.56 571.207 375.093C572.142 374.626 572.915 373.919 573.527 372.973C574.15 372.028 574.456 370.826 574.445 369.368Z" fill="white"></path></svg>