<svg xmlns="http://www.w3.org/2000/svg" height="800" width="1200" viewBox="-35.4525 -6.09595 307.255 36.5757"><defs><clipPath id="a" clipPathUnits="userSpaceOnUse"><path d="M69.75 216h189.08v19.507H69.75z"/></clipPath></defs><path d="M13.6038 24.3838h10.8587V13.6675H13.6038z" fill="#174666"/><g clip-path="url(#a)" transform="matrix(1.25 0 0 -1.25 -87.1875 294.3838)"><path d="M89.3239 235.5072l-19.569-.002-.005-19.505h9.313v10.156c.461 0 10.257.011 10.257.011m19.0981.6594c3.109 0 4.689.454 4.689 2.759 0 2.278-1.58 2.734-4.689 2.734h-7.342v-5.493zm-11.147 8.654h11.71c4.609 0 7.932-1.044 7.932-5.814 0-3.591-2.573-5.574-5.44-5.735l5.976-7.932h-4.69l-5.654 7.664h-6.029v-7.664h-3.805zm25.8317.0004h17.472v-3.269h-13.667v-4.528h11.764v-3.27h-11.764v-5.146h13.988V216h-17.793zm22.8578 0h3.805v-16.104h14.122V216h-17.927zm36.6048-11.7361l-4.074 8.682-4.073-8.682zm-6.244 11.736h4.341l9.459-19.481h-4.019l-2.038 4.475h-11.227l-2.063-4.475h-4.046zm21.8147-3.2688h-8.709v3.269h21.223v-3.269h-8.708v-16.212h-3.806zm17.3638 3.2689h17.472v-3.269h-13.666v-4.528h11.763v-3.27h-11.763v-5.146h13.989V216h-17.795zm30.5232-16.2128c6.484 0 9.001 1.984 9.001 6.539 0 4.77-2.625 6.405-9.001 6.405h-3.859v-12.944zm-7.666 16.213h9.38c6.164 0 11.093-2.6 11.093-9.621 0-6.646-4.5-9.86-10.933-9.86h-9.54z" fill="#174666"/></g></svg>